<svg xmlns="http://www.w3.org/2000/svg" width="72" height="72" viewBox="0 0 72 72">
  <defs>
    <style>
      .cls-1 {
        fill-rule: evenodd;
      }
    </style>
  </defs>
  <path id="LS-Negative" class="cls-1" d="M35.759,3.371A32.629,32.629,0,1,1,3.13,36,32.629,32.629,0,0,1,35.759,3.371Zm8.389,42.653a8,8,0,0,1-5.523,1.881c-0.161,0-.319,0-0.476-0.01V42.764a5.461,5.461,0,0,0,.623.037q2.79,0,2.791-1.865a1.79,1.79,0,0,0-.9-1.587A15.376,15.376,0,0,0,37.3,38.024a14.077,14.077,0,0,1-2.262-.883,9.356,9.356,0,0,1-1.895-1.292,5.138,5.138,0,0,1-1.41-2.012,7.437,7.437,0,0,1-.485-2.781,6.592,6.592,0,0,1,2.042-5.071,6.846,6.846,0,0,1,4.182-1.869V24.082h4.34v5.157H37.559a2.037,2.037,0,0,0-1.034.458,1.582,1.582,0,0,0-.573,1.227,1.887,1.887,0,0,0,.72,1.472,9.79,9.79,0,0,0,2.982,1.374q1.234,0.426,1.909.687a13,13,0,0,1,1.719.867A5.718,5.718,0,0,1,44.868,36.6a6.613,6.613,0,0,1,.969,1.767,6.881,6.881,0,0,1,.426,2.5A6.544,6.544,0,0,1,44.148,46.024Zm-8.5-3.271v5.156H25.217V42.753h0V27.21h5.168V42.753h5.265Z"/>
</svg>
