<svg xmlns="http://www.w3.org/2000/svg" width="38" height="38" viewBox="0 0 38 38">
  <defs>
    <style>
      .cls-1 {
        fill: #fff;
      }

      .cls-2 {
        fill: #040404;
        fill-rule: evenodd;
      }
    </style>
  </defs>
  <circle id="Elipse_1" data-name="Elipse 1" class="cls-1" cx="19" cy="19" r="19"/>
  <path id="Forma_316_1" data-name="Forma 316 1" class="cls-2" d="M23.352,24.868A4.511,4.511,0,0,1,20.2,25.962c-0.092,0-.182,0-0.271-0.006V22.972a3.052,3.052,0,0,0,.355.022q1.593,0,1.593-1.085a1.045,1.045,0,0,0-.511-0.923,8.68,8.68,0,0,0-1.92-.771,7.952,7.952,0,0,1-1.291-.514,5.334,5.334,0,0,1-1.081-.752,2.99,2.99,0,0,1-.8-1.17,4.4,4.4,0,0,1-.277-1.617,3.873,3.873,0,0,1,3.552-4.036V12.107H22.02v3H19.592a1.152,1.152,0,0,0-.59.267,0.927,0.927,0,0,0-.327.714,1.105,1.105,0,0,0,.411.856,5.542,5.542,0,0,0,1.7.8q0.7,0.248,1.09.4a7.363,7.363,0,0,1,.981.5,3.277,3.277,0,0,1,.905.742,3.872,3.872,0,0,1,.553,1.027,4.073,4.073,0,0,1,.243,1.456A3.841,3.841,0,0,1,23.352,24.868Zm-4.849-1.9v3H12.549v-3h0v-9.04H15.5v9.04h3Z"/>
</svg>
