<svg xmlns="http://www.w3.org/2000/svg" width="350" height="158" viewBox="0 0 350 158">
  <defs>
    <style>
      .cls-1, .cls-2 {
        fill: #fff;
      }

      .cls-1, .cls-3 {
        fill-rule: evenodd;
      }
    </style>
  </defs>
  <path id="SERIES" class="cls-1" d="M212.654,90.8a7.144,7.144,0,0,0,2.684-5.863,7.608,7.608,0,0,0-.971-3.769,5.254,5.254,0,0,0-1.161-1.332,13.351,13.351,0,0,0-1.351-1.028,10.409,10.409,0,0,0-1.675-.819q-1.086-.437-1.714-0.647t-1.846-.59A14.632,14.632,0,0,1,202.6,75.06a2.425,2.425,0,0,1-1.046-2.037,2.344,2.344,0,0,1,.932-1.922,4.022,4.022,0,0,1,2.57-.742,5.319,5.319,0,0,1,5.1,3.426l4.417-2.551a10.621,10.621,0,0,0-3.826-4.4,10.292,10.292,0,0,0-5.692-1.58,9.321,9.321,0,0,0-6.186,2.151,7.135,7.135,0,0,0-2.57,5.768,7.408,7.408,0,0,0,.647,3.2,5.813,5.813,0,0,0,1.884,2.265,13.034,13.034,0,0,0,2.475,1.428,27.719,27.719,0,0,0,3.027,1.066,19.4,19.4,0,0,1,4.492,1.694,2.516,2.516,0,0,1,.228,4.207,5.275,5.275,0,0,1-3.236.8,5.985,5.985,0,0,1-6.129-4.073L195.2,86.386a9.462,9.462,0,0,0,3.807,4.816,11.9,11.9,0,0,0,6.662,1.77A10.764,10.764,0,0,0,212.654,90.8Zm18.788-9.365h10.089V76.488H231.442V70.815h11.041V65.79h-16.3v26.65h16.485V87.414H231.442V81.437Zm42.83,11-5.9-10.051A8.816,8.816,0,0,0,272.1,79.21a8.114,8.114,0,0,0,1.408-4.587,8.839,8.839,0,0,0-8.87-8.832H253.98v26.65h5.254V83.188h3.978l5.387,9.251h5.673ZM264.64,70.7a3.366,3.366,0,0,1,2.55,1.142,3.923,3.923,0,0,1,1.066,2.779,3.989,3.989,0,0,1-1.066,2.8,3.341,3.341,0,0,1-2.55,1.161h-5.406V70.7h5.406Zm20.329,21.738h5.254V65.79h-5.254v26.65Zm23.071-11h10.088V76.488H308.04V70.815h11.04V65.79H302.786v26.65h16.485V87.414H308.04V81.437ZM346.662,90.8a7.141,7.141,0,0,0,2.684-5.863,7.622,7.622,0,0,0-.97-3.769,5.279,5.279,0,0,0-1.162-1.332,13.351,13.351,0,0,0-1.351-1.028,10.409,10.409,0,0,0-1.675-.819q-1.086-.437-1.713-0.647t-1.847-.59a14.637,14.637,0,0,1-4.016-1.694,2.423,2.423,0,0,1-1.047-2.037A2.342,2.342,0,0,1,336.5,71.1a4.019,4.019,0,0,1,2.569-.742,5.321,5.321,0,0,1,5.1,3.426l4.416-2.551a10.621,10.621,0,0,0-3.826-4.4,10.292,10.292,0,0,0-5.692-1.58,9.323,9.323,0,0,0-6.186,2.151,7.138,7.138,0,0,0-2.57,5.768,7.408,7.408,0,0,0,.647,3.2,5.824,5.824,0,0,0,1.885,2.265,13,13,0,0,0,2.474,1.428,27.8,27.8,0,0,0,3.027,1.066,19.385,19.385,0,0,1,4.492,1.694,2.516,2.516,0,0,1,.229,4.207,5.279,5.279,0,0,1-3.236.8,5.986,5.986,0,0,1-6.13-4.073l-4.492,2.627a9.467,9.467,0,0,0,3.807,4.816,11.9,11.9,0,0,0,6.662,1.77A10.764,10.764,0,0,0,346.662,90.8Z"/>
  <circle id="Elipse_1" data-name="Elipse 1" class="cls-2" cx="78.5" cy="78.5" r="78.5"/>
  <path id="Forma_316_1" data-name="Forma 316 1" class="cls-3" d="M98.759,103.45q-5.1,4.539-13.309,4.538c-0.388,0-.768-0.01-1.146-0.024V95.586a13.089,13.089,0,0,0,1.5.09q6.725,0,6.725-4.5a4.319,4.319,0,0,0-2.159-3.828,37.031,37.031,0,0,0-8.106-3.2,33.909,33.909,0,0,1-5.451-2.131A22.535,22.535,0,0,1,72.248,78.9a12.4,12.4,0,0,1-3.4-4.854,17.958,17.958,0,0,1-1.168-6.709q0-7.654,4.92-12.233A16.489,16.489,0,0,1,82.679,50.6v-0.08H93.136v12.44H82.881a4.906,4.906,0,0,0-2.492,1.106,3.818,3.818,0,0,0-1.38,2.96,4.553,4.553,0,0,0,1.734,3.552q1.734,1.5,7.185,3.315,2.973,1.027,4.6,1.657a31.324,31.324,0,0,1,4.141,2.091,13.776,13.776,0,0,1,3.822,3.078,15.93,15.93,0,0,1,2.336,4.262,16.606,16.606,0,0,1,1.027,6.038Q103.856,98.912,98.759,103.45ZM78.285,95.56V108H65.6v0H53.141v0h0V95.56h0V58.067H65.6V95.56H78.285Z"/>
</svg>
